<?xml version="1.0" encoding="UTF-8" standalone="no"?>
<!DOCTYPE svg PUBLIC "-//W3C//DTD SVG 1.1//EN" "http://www.w3.org/Graphics/SVG/1.1/DTD/svg11.dtd">
<svg width="100%" height="100%" viewBox="0 0 368 97" version="1.1" xmlns="http://www.w3.org/2000/svg" xmlns:xlink="http://www.w3.org/1999/xlink" xml:space="preserve" xmlns:serif="http://www.serif.com/" style="fill-rule:evenodd;clip-rule:evenodd;stroke-linejoin:round;stroke-miterlimit:2;">
    <g transform="matrix(0.670838,0.130915,-0.130915,0.670838,-112.875,-113.079)">
        <g>
            <path d="M274.998,139.522C277.955,139.522 280.349,137.126 280.349,134.171L280.349,120.35C280.349,117.394 277.955,115 274.998,115C272.045,115 269.65,117.394 269.65,120.35L269.65,134.171C269.65,137.126 272.045,139.522 274.998,139.522ZM311.256,154.538C312.626,154.538 313.994,154.016 315.04,152.972L324.813,143.199C326.901,141.11 326.901,137.722 324.816,135.634C322.725,133.542 319.335,133.542 317.247,135.634L307.474,145.407C305.385,147.495 305.385,150.882 307.474,152.972C308.518,154.016 309.889,154.538 311.256,154.538ZM234.958,152.972C236.004,154.019 237.373,154.541 238.743,154.541C240.113,154.541 241.48,154.019 242.524,152.975C244.614,150.884 244.614,147.495 242.524,145.407L232.751,135.634C230.66,133.542 227.275,133.542 225.187,135.634C223.096,137.722 223.096,141.11 225.187,143.199L234.958,152.972ZM223.725,190.795C226.68,190.795 229.077,188.405 229.077,185.45C229.077,182.493 226.681,180.096 223.725,180.096L209.902,180.096C206.949,180.096 204.552,182.493 204.552,185.447C204.552,188.402 206.944,190.795 209.901,190.795L223.725,190.795ZM234.958,217.921L225.187,227.691C223.096,229.785 223.096,233.171 225.187,235.266C226.233,236.307 227.6,236.827 228.97,236.827C230.339,236.827 231.707,236.307 232.751,235.266L242.524,225.487C244.614,223.398 244.614,220.012 242.524,217.921C240.434,215.833 237.05,215.833 234.958,217.921L234.958,217.921Z" style="fill:rgb(255,236,0);"/>
            <g transform="matrix(1.46307,0,0,1.46307,110.454,-136.526)">
                <path d="M139.029,220.068L138.956,218.325L138.973,218.325C139.01,218.901 139.029,219.482 139.029,220.068Z" style="fill:rgb(255,236,0);"/>
            </g>
            <g transform="matrix(1.46307,0,0,1.46307,110.454,-136.526)">
                <path d="M138.945,218.048L138.935,217.82C138.941,217.893 138.947,217.966 138.953,218.039C138.95,218.042 138.947,218.045 138.945,218.048Z" style="fill:rgb(255,236,0);"/>
            </g>
            <g transform="matrix(1.46307,0,0,1.46307,110.454,-136.526)">
                <path d="M138.945,218.048L138.956,218.325L138.392,218.325C138.392,218.325 138.69,218.322 138.786,218.226C138.846,218.166 138.898,218.106 138.945,218.048Z" style="fill:rgb(255,236,0);"/>
            </g>
            <g transform="matrix(1.46307,0,0,1.46307,110.454,-136.526)">
                <path d="M138.973,218.325L138.956,218.325L138.945,218.048C138.947,218.045 138.95,218.042 138.953,218.039C138.96,218.134 138.967,218.229 138.973,218.325Z" style="fill:rgb(255,236,0);"/>
            </g>
            <g transform="matrix(1.46307,0,0,1.46307,110.454,-136.526)">
                <path d="M138.392,217.144C138.493,217.144 138.353,217.18 138.19,217.208C138.171,217.21 138.153,217.211 138.135,217.213C138.326,217.12 138.523,217.045 138.687,217.045M138.687,217.045C138.523,217.045 138.326,217.12 138.135,217.213C137.938,217.229 137.779,217.242 137.703,217.242C137.035,217.242 136.21,217.175 135.442,217.216M138.872,217.162C138.642,217.172 138.398,217.191 138.19,217.208C138.353,217.18 138.493,217.144 138.392,217.144M135.442,217.216C134.893,217.246 134.374,217.331 133.962,217.537C133.192,217.922 132.332,217.549 131.737,218.091L131.616,218.106C130.63,208.409 122.416,200.815 112.465,200.815C101.851,200.815 93.215,209.452 93.215,220.068C93.215,230.68 101.851,239.315 112.465,239.315C113.251,239.315 114.026,239.268 114.787,239.176C114.845,239.169 114.903,239.161 114.961,239.154C114.949,240.163 114.837,241.727 115.356,242.247C115.651,242.542 115.455,243.329 115.75,243.625C115.83,243.704 115.75,244.287 115.75,244.412C115.75,245.167 115.836,245.676 115.847,246.415C115.651,246.44 115.455,246.462 115.258,246.483C114.34,246.58 113.408,246.629 112.465,246.629C97.818,246.629 85.901,234.713 85.901,220.068C85.901,205.419 97.819,193.501 112.465,193.501C126.132,193.501 137.42,203.875 138.872,217.162" style="fill:rgb(255,236,0);"/>
            </g>
            <g transform="matrix(1.46307,0,0,1.46307,110.454,-136.526)">
                <path d="M137.854,217.359C137.905,217.331 137.958,217.302 138.013,217.274L138.872,217.162C138.874,217.189 138.877,217.217 138.88,217.244L137.854,217.359Z" style="fill:rgb(255,236,0);"/>
            </g>
            <g transform="matrix(1.46307,0,0,1.46307,110.454,-136.526)">
                <path d="M138.121,217.219C138.085,217.237 138.048,217.256 138.013,217.274L137.178,217.383C137.429,217.32 137.877,217.242 137.9,217.242C137.952,217.242 138.035,217.232 138.121,217.219Z" style="fill:rgb(255,236,0);"/>
            </g>
            <g transform="matrix(1.46307,0,0,1.46307,110.454,-136.526)">
                <path d="M132.046,218.013L131.895,218.03C131.855,218.03 131.92,218.023 132.046,218.013Z" style="fill:rgb(255,236,0);"/>
            </g>
            <g transform="matrix(1.46307,0,0,1.46307,110.454,-136.526)">
                <path d="M132.046,218.013L134.196,217.771L132.668,217.969C132.424,217.984 132.193,218.001 132.046,218.013Z" style="fill:rgb(255,236,0);"/>
            </g>
            <g transform="matrix(1.46307,0,0,1.46307,110.454,-136.526)">
                <path d="M132.668,217.969L131.737,218.091C132.332,217.549 133.192,217.922 133.962,217.537C134.95,217.043 136.557,217.242 137.703,217.242C137.779,217.242 137.938,217.229 138.135,217.213C138.13,217.215 138.126,217.217 138.121,217.219C138.035,217.232 137.952,217.242 137.9,217.242C137.877,217.242 137.429,217.32 137.178,217.383L134.196,217.771L132.046,218.013C131.92,218.023 131.855,218.03 131.895,218.03L132.046,218.013C132.193,218.001 132.424,217.984 132.668,217.969Z" style="fill:rgb(255,236,0);"/>
            </g>
            <g transform="matrix(1.46307,0,0,1.46307,110.454,-136.526)">
                <path d="M138.121,217.219C138.126,217.217 138.13,217.215 138.135,217.213C138.153,217.211 138.171,217.21 138.19,217.208C138.167,217.212 138.144,217.216 138.121,217.219Z" style="fill:rgb(255,236,0);"/>
            </g>
            <g transform="matrix(1.46307,0,0,1.46307,110.454,-136.526)">
                <path d="M138.19,217.208C138.398,217.191 138.642,217.172 138.872,217.162L138.013,217.274C138.048,217.256 138.085,217.237 138.121,217.219C138.144,217.216 138.167,217.212 138.19,217.208Z" style="fill:rgb(255,236,0);"/>
            </g>
            <g transform="matrix(1.46307,0,0,1.46307,110.454,-136.526)">
                <path d="M136.996,217.456C136.709,217.711 136.227,217.438 135.832,217.636C135.185,217.959 134.316,217.931 133.568,217.931C133.364,217.931 133.003,217.949 132.668,217.969L134.196,217.771L136.996,217.456Z" style="fill:rgb(255,236,0);"/>
            </g>
            <g transform="matrix(1.46307,0,0,1.46307,110.454,-136.526)">
                <path d="M137.178,217.383L138.013,217.274C137.958,217.302 137.905,217.331 137.854,217.359L136.996,217.456C137.002,217.45 137.008,217.445 137.014,217.439C137.028,217.424 137.091,217.404 137.178,217.383Z" style="fill:rgb(255,236,0);"/>
            </g>
            <g transform="matrix(1.46307,0,0,1.46307,110.454,-136.526)">
                <path d="M134.196,217.771L137.178,217.383C137.091,217.404 137.028,217.424 137.014,217.439C137.008,217.445 137.002,217.45 136.996,217.456L134.196,217.771Z" style="fill:rgb(255,236,0);"/>
            </g>
            <g transform="matrix(1.46307,0,0,1.46307,110.454,-136.526)">
                <path d="M137.854,217.359C137.719,217.433 137.597,217.501 137.506,217.537C137.364,217.594 136.439,217.62 136.325,217.734C135.85,218.209 134.017,218.423 133.371,218.423C133.04,218.423 132.144,218.522 131.647,218.44C131.638,218.329 131.627,218.217 131.616,218.106L131.737,218.091C131.724,218.103 131.711,218.115 131.698,218.128C131.711,218.115 131.724,218.103 131.737,218.091L132.668,217.969C133.003,217.949 133.364,217.931 133.568,217.931C134.316,217.931 135.185,217.959 135.832,217.636C136.227,217.438 136.709,217.711 136.996,217.456L137.854,217.359Z" style="fill:rgb(255,236,0);"/>
            </g>
        </g>
    </g>
    <g transform="matrix(1,0,0,1,-70.813,-248.578)">
        <g>
            <path d="M132.374,294.114C135.231,294.114 137.906,294.658 140.401,295.745C142.895,296.833 145.07,298.304 146.924,300.158C148.779,302.013 150.25,304.198 151.337,306.714C152.425,309.23 152.968,311.895 152.968,314.709L152.968,331.338C152.968,332.446 152.585,333.384 151.817,334.152C151.05,334.919 150.112,335.303 149.003,335.303C147.894,335.303 146.946,334.919 146.157,334.152C145.368,333.384 144.974,332.446 144.974,331.338L144.974,323.663L132.374,323.663L132.374,323.599C132.246,323.642 132.012,323.663 131.67,323.663C130.263,323.663 128.92,323.876 127.641,324.302C126.362,324.729 125.2,325.326 124.155,326.093C123.111,326.861 122.205,327.778 121.437,328.843C120.67,329.909 120.094,331.082 119.71,332.361C119.668,332.404 119.646,332.446 119.646,332.489C119.646,332.532 119.625,332.574 119.582,332.617C119.327,333.427 118.858,334.077 118.175,334.568C117.493,335.058 116.704,335.303 115.809,335.303C114.7,335.303 113.762,334.919 112.995,334.152C112.227,333.385 111.843,332.446 111.843,331.338L111.843,314.709C111.843,312.193 112.27,309.827 113.123,307.609C114.146,304.881 115.681,302.45 117.728,300.318C119.646,298.4 121.853,296.886 124.347,295.777C126.842,294.669 129.517,294.114 132.374,294.114L132.374,294.114ZM144.974,315.668L144.974,314.709C144.974,312.492 144.441,310.445 143.375,308.569C143.375,308.526 143.364,308.494 143.343,308.473C143.321,308.452 143.311,308.42 143.311,308.377C143.14,308.121 142.97,307.865 142.799,307.609C142.629,307.354 142.458,307.119 142.287,306.906C141.136,305.414 139.708,304.241 138.002,303.388C136.297,302.535 134.421,302.109 132.374,302.109C130.327,302.109 128.441,302.567 126.714,303.484C124.987,304.401 123.548,305.605 122.397,307.098C121.586,308.164 120.957,309.336 120.51,310.615C120.062,311.895 119.838,313.259 119.838,314.709L119.838,319.442C121.501,318.248 123.335,317.32 125.339,316.659C127.343,315.999 129.453,315.668 131.67,315.668L132.374,315.668L144.974,315.668Z" style="fill:rgb(0,195,255);fill-rule:nonzero;"/>
            <path d="M178.807,294.114C179.873,294.2 180.779,294.615 181.526,295.362C182.272,296.108 182.645,297.014 182.645,298.08C182.645,299.188 182.25,300.137 181.462,300.926C180.673,301.715 179.724,302.109 178.615,302.109L178.296,302.109C176.633,302.194 175.066,302.578 173.595,303.26C172.124,303.943 170.845,304.849 169.757,305.979C168.67,307.108 167.817,308.42 167.199,309.912C166.581,311.404 166.272,313.003 166.272,314.709L166.272,331.338C166.272,332.446 165.877,333.384 165.088,334.152C164.3,334.919 163.351,335.303 162.242,335.303C161.134,335.303 160.196,334.919 159.428,334.152C158.661,333.385 158.277,332.446 158.277,331.338L158.277,314.709C158.277,311.895 158.799,309.262 159.844,306.81C160.889,304.358 162.306,302.205 164.097,300.35C165.888,298.495 167.998,297.014 170.429,295.905C172.859,294.797 175.46,294.2 178.232,294.114L178.679,294.114L178.807,294.114Z" style="fill:rgb(0,195,255);fill-rule:nonzero;"/>
            <path d="M226.84,316.308C226.84,316.393 226.818,316.457 226.776,316.5C226.776,316.713 226.754,316.969 226.712,317.267C226.669,317.566 226.605,317.928 226.52,318.354C226.094,320.742 225.273,322.97 224.058,325.038C222.842,327.106 221.339,328.897 219.549,330.41C217.758,331.924 215.722,333.118 213.441,333.992C211.159,334.866 208.761,335.303 206.245,335.303C203.431,335.303 200.777,334.76 198.283,333.672C195.788,332.585 193.614,331.114 191.759,329.259C189.904,327.404 188.433,325.219 187.346,322.704C186.258,320.188 185.715,317.523 185.715,314.709C185.715,311.895 186.258,309.23 187.346,306.714C188.433,304.198 189.904,302.013 191.759,300.158C193.614,298.304 195.788,296.833 198.283,295.745C200.777,294.658 203.431,294.114 206.245,294.114C208.335,294.114 210.317,294.413 212.193,295.01C214.069,295.607 215.818,296.417 217.438,297.44L218.141,297.888C219.08,298.485 219.666,299.316 219.9,300.382C220.135,301.448 219.954,302.45 219.357,303.388C218.76,304.326 217.928,304.923 216.862,305.179C215.796,305.435 214.794,305.264 213.856,304.667L212.321,303.644C211.426,303.175 210.467,302.802 209.443,302.525C208.42,302.248 207.354,302.109 206.245,302.109C204.497,302.109 202.866,302.44 201.353,303.1C199.839,303.761 198.506,304.657 197.355,305.787C196.204,306.917 195.298,308.249 194.637,309.784C193.976,311.319 193.646,312.961 193.646,314.709C193.646,316.457 193.976,318.099 194.637,319.634C195.298,321.169 196.204,322.501 197.355,323.631C198.506,324.761 199.839,325.656 201.353,326.317C202.866,326.978 204.497,327.309 206.245,327.309C207.61,327.309 208.91,327.106 210.147,326.701C211.383,326.296 212.513,325.731 213.536,325.006C214.56,324.281 215.455,323.418 216.223,322.416C216.99,321.414 217.608,320.316 218.078,319.122L212.577,319.122C211.469,319.122 210.53,318.728 209.763,317.939C208.995,317.15 208.612,316.201 208.612,315.093C208.612,313.984 208.995,313.046 209.763,312.278C210.53,311.511 211.469,311.127 212.577,311.127L222.491,311.127C223.727,311.212 224.761,311.713 225.593,312.63C226.424,313.547 226.84,314.624 226.84,315.86L226.84,316.244L226.84,316.308Z" style="fill:rgb(0,195,255);fill-rule:nonzero;"/>
            <path d="M272.186,314.773C272.143,315.881 271.727,316.819 270.939,317.587C270.15,318.354 269.201,318.759 268.093,318.802L239.631,318.802C239.802,319.314 240.036,319.847 240.335,320.401C240.548,320.827 240.761,321.232 240.974,321.616C241.188,322 241.401,322.384 241.614,322.767C241.401,322.426 241.209,322.096 241.038,321.776C240.868,321.456 240.697,321.126 240.527,320.785C241.209,322.021 242.083,323.13 243.149,324.111C244.215,325.091 245.409,325.859 246.731,326.413C248.138,327.01 249.694,327.351 251.4,327.436L251.655,327.436C252.764,327.436 253.691,327.809 254.438,328.556C255.184,329.302 255.557,330.229 255.557,331.338C255.557,332.446 255.184,333.384 254.438,334.152C253.691,334.919 252.764,335.303 251.655,335.303L250.92,335.303C250.685,335.303 250.461,335.282 250.248,335.239C248.457,335.111 246.709,334.749 245.004,334.152C243.298,333.555 241.71,332.777 240.239,331.818C238.768,330.858 237.435,329.718 236.242,328.396C235.048,327.074 234.046,325.603 233.235,323.983C231.658,320.785 230.944,317.406 231.093,313.845C231.242,310.285 232.255,306.991 234.131,303.964C234.301,303.708 234.483,303.442 234.675,303.164C234.866,302.887 235.069,302.621 235.282,302.365C236.86,300.233 238.778,298.495 241.038,297.152C243.298,295.809 245.707,294.903 248.266,294.434C251.549,293.922 254.789,294.178 257.987,295.202C261.185,296.225 263.935,297.931 266.238,300.318C268.114,302.237 269.574,304.412 270.619,306.842C271.664,309.272 272.186,311.831 272.186,314.517L272.186,314.773ZM244.876,304.028C243.639,304.838 242.573,305.829 241.678,307.002C240.783,308.174 240.1,309.443 239.631,310.807L263.679,310.807C263.466,310.168 263.168,309.486 262.784,308.761C261.974,307.226 260.876,305.915 259.49,304.827C258.104,303.74 256.559,302.962 254.853,302.493C253.19,302.024 251.485,301.928 249.737,302.205C247.988,302.482 246.368,303.09 244.876,304.028Z" style="fill:rgb(0,195,255);fill-rule:nonzero;"/>
            <path d="M309.857,294.114C310.966,294.114 311.914,294.509 312.703,295.298C313.492,296.086 313.886,297.035 313.886,298.144L313.886,331.338L313.822,331.402L313.822,332.041C313.78,332.084 313.758,332.148 313.758,332.233C313.758,332.276 313.748,332.308 313.726,332.329C313.705,332.35 313.695,332.382 313.695,332.425C313.695,332.468 313.673,332.51 313.631,332.553C313.631,332.681 313.609,332.766 313.567,332.809C313.567,332.852 313.545,332.894 313.503,332.937C313.503,333.022 313.46,333.107 313.375,333.193L313.375,333.257C313.332,333.299 313.3,333.342 313.279,333.385C313.257,333.427 313.225,333.47 313.183,333.512L313.183,333.576C313.14,333.619 313.108,333.662 313.087,333.704C313.066,333.747 313.012,333.79 312.927,333.832L312.927,333.896L312.415,334.408C312.33,334.45 312.223,334.536 312.096,334.664C312.01,334.706 311.957,334.738 311.936,334.76C311.914,334.781 311.861,334.813 311.776,334.856L311.712,334.856C311.627,334.941 311.541,334.983 311.456,334.983C311.413,334.983 311.392,335.005 311.392,335.047C311.307,335.047 311.253,335.058 311.232,335.079C311.211,335.101 311.157,335.111 311.072,335.111C311.072,335.111 311.03,335.133 310.944,335.175C310.902,335.175 310.87,335.186 310.848,335.207C310.827,335.229 310.774,335.239 310.688,335.239L310.561,335.239C310.518,335.239 310.486,335.25 310.465,335.271C310.443,335.293 310.39,335.303 310.305,335.303L309.345,335.303C309.303,335.303 309.271,335.293 309.249,335.271C309.228,335.25 309.196,335.239 309.153,335.239L308.962,335.239C308.919,335.197 308.855,335.175 308.77,335.175C308.727,335.175 308.695,335.165 308.674,335.143C308.652,335.122 308.62,335.111 308.578,335.111C308.535,335.111 308.503,335.101 308.482,335.079C308.461,335.058 308.429,335.047 308.386,335.047C308.343,335.047 308.322,335.037 308.322,335.015C308.322,334.994 308.301,334.983 308.258,334.983C308.258,334.983 308.173,334.941 308.002,334.856C308.002,334.856 307.981,334.834 307.938,334.792C307.853,334.792 307.768,334.749 307.682,334.664C307.682,334.664 307.661,334.642 307.618,334.6C307.448,334.514 307.363,334.472 307.363,334.472C307.363,334.429 307.352,334.408 307.331,334.408C307.309,334.408 307.299,334.387 307.299,334.344C307.256,334.344 307.192,334.301 307.107,334.216L306.915,334.024L284.338,308.633L284.338,331.338C284.338,332.446 283.954,333.385 283.187,334.152C282.419,334.919 281.481,335.303 280.372,335.303C279.264,335.303 278.315,334.919 277.526,334.152C276.737,333.385 276.343,332.446 276.343,331.338L276.343,297.76L276.407,297.696C276.492,296.715 276.919,295.863 277.686,295.138C278.496,294.413 279.456,294.072 280.564,294.114C281.673,294.157 282.59,294.605 283.314,295.457L305.892,320.785L305.892,298.144C305.892,297.035 306.275,296.086 307.043,295.298C307.81,294.509 308.748,294.114 309.857,294.114L309.857,294.114Z" style="fill:rgb(0,195,255);fill-rule:nonzero;"/>
            <path d="M340.749,294.114C341.857,294.114 342.806,294.509 343.595,295.298C344.384,296.086 344.778,297.035 344.778,298.144C344.778,299.252 344.384,300.19 343.595,300.958C342.806,301.725 341.857,302.109 340.749,302.109L340.365,302.109C338.617,302.109 336.975,302.44 335.44,303.1C333.905,303.761 332.573,304.657 331.443,305.787C330.313,306.917 329.417,308.249 328.757,309.784C328.096,311.319 327.765,312.961 327.765,314.709L327.765,318.994L336.336,318.994C337.444,318.994 338.393,319.378 339.182,320.145C339.971,320.913 340.365,321.851 340.365,322.959C340.365,324.068 339.971,325.017 339.182,325.806C338.393,326.594 337.444,326.989 336.336,326.989L327.765,326.989L327.765,341.315C327.765,342.424 327.381,343.373 326.614,344.161C325.847,344.95 324.908,345.345 323.8,345.345C322.691,345.345 321.743,344.95 320.954,344.161C320.165,343.373 319.77,342.424 319.77,341.315L319.77,314.709C319.77,311.895 320.314,309.23 321.401,306.714C322.489,304.198 323.96,302.013 325.815,300.158C327.669,298.304 329.844,296.833 332.338,295.745C334.833,294.658 337.508,294.114 340.365,294.114L340.749,294.114Z" style="fill:rgb(0,195,255);fill-rule:nonzero;"/>
            <path d="M373.303,331.338C373.303,332.404 372.93,333.31 372.184,334.056C371.438,334.802 370.532,335.218 369.466,335.303L368.89,335.303C366.119,335.218 363.518,334.621 361.087,333.512C358.657,332.404 356.546,330.922 354.755,329.067C352.965,327.213 351.547,325.059 350.502,322.608C349.458,320.156 348.935,317.523 348.935,314.709L348.935,298.08C348.935,296.971 349.319,296.033 350.087,295.266C350.854,294.498 351.792,294.114 352.901,294.114C354.009,294.114 354.958,294.498 355.747,295.266C356.536,296.033 356.93,296.971 356.93,298.08L356.866,314.709C356.866,316.414 357.186,318.013 357.825,319.506C358.465,320.998 359.328,322.309 360.416,323.439C361.503,324.569 362.782,325.486 364.253,326.189C365.724,326.893 367.291,327.266 368.954,327.309L369.274,327.309C370.382,327.309 371.331,327.703 372.12,328.492C372.909,329.281 373.303,330.229 373.303,331.338L373.303,331.338Z" style="fill:rgb(0,195,255);fill-rule:nonzero;"/>
            <path d="M381.874,296.865C382.982,296.865 383.931,297.259 384.72,298.048C385.509,298.837 385.903,299.785 385.903,300.894L385.903,331.146C385.903,332.255 385.509,333.203 384.72,333.992C383.931,334.781 382.982,335.175 381.874,335.175C380.765,335.175 379.827,334.781 379.059,333.992C378.292,333.203 377.908,332.255 377.908,331.146L377.908,300.894C377.908,299.785 378.292,298.837 379.059,298.048C379.827,297.259 380.765,296.865 381.874,296.865ZM381.874,292.132C380.765,292.132 379.827,291.737 379.059,290.948C378.292,290.16 377.908,289.211 377.908,288.102C377.908,286.994 378.292,286.045 379.059,285.256C379.827,284.467 380.765,284.073 381.874,284.073C382.982,284.073 383.931,284.467 384.72,285.256C385.509,286.045 385.903,286.994 385.903,288.102C385.903,289.211 385.509,290.16 384.72,290.948C383.931,291.737 382.982,292.132 381.874,292.132Z" style="fill:rgb(0,195,255);fill-rule:nonzero;"/>
            <path d="M438.157,298.08L438.157,299.167C437.943,302.365 437.101,305.296 435.63,307.961C434.159,310.626 432.208,312.854 429.778,314.645C432.208,316.436 434.17,318.685 435.662,321.392C437.155,324.1 437.986,327.053 438.157,330.251L438.157,331.338C438.157,332.446 437.773,333.384 437.005,334.152C436.238,334.919 435.3,335.303 434.191,335.303C433.083,335.303 432.134,334.919 431.345,334.152C430.556,333.385 430.162,332.446 430.162,331.338L430.162,330.698C430.076,329.035 429.703,327.49 429.043,326.061C428.382,324.633 427.508,323.375 426.42,322.288C425.333,321.201 424.064,320.326 422.615,319.666C421.165,319.005 419.609,318.653 417.946,318.61C417.861,318.653 417.754,318.674 417.626,318.674C417.455,318.674 417.328,318.653 417.242,318.61C415.579,318.653 414.023,319.005 412.573,319.666C411.124,320.326 409.855,321.201 408.768,322.288C407.681,323.375 406.796,324.633 406.114,326.061C405.431,327.49 405.069,329.035 405.026,330.698L405.026,331.338C405.026,332.446 404.632,333.384 403.843,334.152C403.054,334.919 402.106,335.303 400.997,335.303C399.888,335.303 398.95,334.919 398.183,334.152C397.415,333.385 397.032,332.446 397.032,331.338L397.032,330.251C397.202,327.053 398.034,324.1 399.526,321.392C401.018,318.685 402.98,316.436 405.41,314.645C402.98,312.854 401.029,310.626 399.558,307.961C398.087,305.296 397.245,302.365 397.032,299.167L397.032,298.08C397.032,296.971 397.415,296.033 398.183,295.266C398.95,294.498 399.888,294.114 400.997,294.114C402.106,294.114 403.054,294.509 403.843,295.298C404.632,296.086 405.026,297.035 405.026,298.144L405.026,298.591C405.069,300.254 405.431,301.811 406.114,303.26C406.796,304.71 407.681,305.979 408.768,307.066C409.855,308.153 411.124,309.017 412.573,309.656C414.023,310.296 415.579,310.637 417.242,310.679L417.946,310.679C419.609,310.637 421.165,310.296 422.615,309.656C424.064,309.017 425.333,308.153 426.42,307.066C427.508,305.979 428.382,304.71 429.043,303.26C429.703,301.811 430.077,300.254 430.162,298.591L430.162,298.144C430.162,297.035 430.556,296.086 431.345,295.298C432.134,294.509 433.083,294.114 434.191,294.114C435.3,294.114 436.238,294.498 437.005,295.266C437.773,296.033 438.157,296.971 438.157,298.08Z" style="fill:rgb(0,195,255);fill-rule:nonzero;"/>
        </g>
    </g>
</svg>
