<?xml version="1.0" encoding="UTF-8" standalone="no"?>
<!DOCTYPE svg PUBLIC "-//W3C//DTD SVG 1.1//EN" "http://www.w3.org/Graphics/SVG/1.1/DTD/svg11.dtd">
<svg width="100%" height="100%" viewBox="0 0 97 78" version="1.1" xmlns="http://www.w3.org/2000/svg" xmlns:xlink="http://www.w3.org/1999/xlink" xml:space="preserve" xmlns:serif="http://www.serif.com/" style="fill-rule:evenodd;clip-rule:evenodd;stroke-linejoin:round;stroke-miterlimit:2;">
    <g transform="matrix(0.479149,0.48742,-0.48742,0.479149,6.77494,-174.749)">
        <g>
            <path d="M274.998,139.522C277.955,139.522 280.349,137.126 280.349,134.171L280.349,120.35C280.349,117.394 277.955,115 274.998,115C272.045,115 269.65,117.394 269.65,120.35L269.65,134.171C269.65,137.126 272.045,139.522 274.998,139.522ZM311.256,154.538C312.626,154.538 313.994,154.016 315.04,152.972L324.813,143.199C326.901,141.11 326.901,137.722 324.816,135.634C322.725,133.542 319.335,133.542 317.247,135.634L307.474,145.407C305.385,147.495 305.385,150.882 307.474,152.972C308.518,154.016 309.889,154.538 311.256,154.538ZM234.958,152.972C236.004,154.019 237.373,154.541 238.743,154.541C240.113,154.541 241.48,154.019 242.524,152.975C244.614,150.884 244.614,147.495 242.524,145.407L232.751,135.634C230.66,133.542 227.275,133.542 225.187,135.634C223.096,137.722 223.096,141.11 225.187,143.199L234.958,152.972ZM223.725,190.795C226.68,190.795 229.077,188.405 229.077,185.45C229.077,182.493 226.681,180.096 223.725,180.096L209.902,180.096C206.949,180.096 204.552,182.493 204.552,185.447C204.552,188.402 206.944,190.795 209.901,190.795L223.725,190.795ZM234.958,217.921L225.187,227.691C223.096,229.785 223.096,233.171 225.187,235.266C226.233,236.307 227.6,236.827 228.97,236.827C230.339,236.827 231.707,236.307 232.751,235.266L242.524,225.487C244.614,223.398 244.614,220.012 242.524,217.921C240.434,215.833 237.05,215.833 234.958,217.921L234.958,217.921Z" style="fill:rgb(255,236,0);"/>
            <g transform="matrix(1.46307,0,0,1.46307,110.454,-136.526)">
                <path d="M139.029,220.068L138.956,218.325L138.973,218.325C139.01,218.901 139.029,219.482 139.029,220.068Z" style="fill:rgb(255,236,0);"/>
            </g>
            <g transform="matrix(1.46307,0,0,1.46307,110.454,-136.526)">
                <path d="M138.945,218.048L138.935,217.82C138.941,217.893 138.947,217.966 138.953,218.039C138.95,218.042 138.947,218.045 138.945,218.048Z" style="fill:rgb(255,236,0);"/>
            </g>
            <g transform="matrix(1.46307,0,0,1.46307,110.454,-136.526)">
                <path d="M138.945,218.048L138.956,218.325L138.392,218.325C138.392,218.325 138.69,218.322 138.786,218.226C138.846,218.166 138.898,218.106 138.945,218.048Z" style="fill:rgb(255,236,0);"/>
            </g>
            <g transform="matrix(1.46307,0,0,1.46307,110.454,-136.526)">
                <path d="M138.973,218.325L138.956,218.325L138.945,218.048C138.947,218.045 138.95,218.042 138.953,218.039C138.96,218.134 138.967,218.229 138.973,218.325Z" style="fill:rgb(255,236,0);"/>
            </g>
            <g transform="matrix(1.46307,0,0,1.46307,110.454,-136.526)">
                <path d="M138.392,217.144C138.493,217.144 138.353,217.18 138.19,217.208C138.171,217.21 138.153,217.211 138.135,217.213C138.326,217.12 138.523,217.045 138.687,217.045M138.687,217.045C138.523,217.045 138.326,217.12 138.135,217.213C137.938,217.229 137.779,217.242 137.703,217.242C137.035,217.242 136.21,217.175 135.442,217.216M138.872,217.162C138.642,217.172 138.398,217.191 138.19,217.208C138.353,217.18 138.493,217.144 138.392,217.144M135.442,217.216C134.893,217.246 134.374,217.331 133.962,217.537C133.192,217.922 132.332,217.549 131.737,218.091L131.616,218.106C130.63,208.409 122.416,200.815 112.465,200.815C101.851,200.815 93.215,209.452 93.215,220.068C93.215,230.68 101.851,239.315 112.465,239.315C113.251,239.315 114.026,239.268 114.787,239.176C114.845,239.169 114.903,239.161 114.961,239.154C114.949,240.163 114.837,241.727 115.356,242.247C115.651,242.542 115.455,243.329 115.75,243.625C115.83,243.704 115.75,244.287 115.75,244.412C115.75,245.167 115.836,245.676 115.847,246.415C115.651,246.44 115.455,246.462 115.258,246.483C114.34,246.58 113.408,246.629 112.465,246.629C97.818,246.629 85.901,234.713 85.901,220.068C85.901,205.419 97.819,193.501 112.465,193.501C126.132,193.501 137.42,203.875 138.872,217.162" style="fill:rgb(255,236,0);"/>
            </g>
            <g transform="matrix(1.46307,0,0,1.46307,110.454,-136.526)">
                <path d="M137.854,217.359C137.905,217.331 137.958,217.302 138.013,217.274L138.872,217.162C138.874,217.189 138.877,217.217 138.88,217.244L137.854,217.359Z" style="fill:rgb(255,236,0);"/>
            </g>
            <g transform="matrix(1.46307,0,0,1.46307,110.454,-136.526)">
                <path d="M138.121,217.219C138.085,217.237 138.048,217.256 138.013,217.274L137.178,217.383C137.429,217.32 137.877,217.242 137.9,217.242C137.952,217.242 138.035,217.232 138.121,217.219Z" style="fill:rgb(255,236,0);"/>
            </g>
            <g transform="matrix(1.46307,0,0,1.46307,110.454,-136.526)">
                <path d="M132.046,218.013L131.895,218.03C131.855,218.03 131.92,218.023 132.046,218.013Z" style="fill:rgb(255,236,0);"/>
            </g>
            <g transform="matrix(1.46307,0,0,1.46307,110.454,-136.526)">
                <path d="M132.046,218.013L134.196,217.771L132.668,217.969C132.424,217.984 132.193,218.001 132.046,218.013Z" style="fill:rgb(255,236,0);"/>
            </g>
            <g transform="matrix(1.46307,0,0,1.46307,110.454,-136.526)">
                <path d="M132.668,217.969L131.737,218.091C132.332,217.549 133.192,217.922 133.962,217.537C134.95,217.043 136.557,217.242 137.703,217.242C137.779,217.242 137.938,217.229 138.135,217.213C138.13,217.215 138.126,217.217 138.121,217.219C138.035,217.232 137.952,217.242 137.9,217.242C137.877,217.242 137.429,217.32 137.178,217.383L134.196,217.771L132.046,218.013C131.92,218.023 131.855,218.03 131.895,218.03L132.046,218.013C132.193,218.001 132.424,217.984 132.668,217.969Z" style="fill:rgb(255,236,0);"/>
            </g>
            <g transform="matrix(1.46307,0,0,1.46307,110.454,-136.526)">
                <path d="M138.121,217.219C138.126,217.217 138.13,217.215 138.135,217.213C138.153,217.211 138.171,217.21 138.19,217.208C138.167,217.212 138.144,217.216 138.121,217.219Z" style="fill:rgb(255,236,0);"/>
            </g>
            <g transform="matrix(1.46307,0,0,1.46307,110.454,-136.526)">
                <path d="M138.19,217.208C138.398,217.191 138.642,217.172 138.872,217.162L138.013,217.274C138.048,217.256 138.085,217.237 138.121,217.219C138.144,217.216 138.167,217.212 138.19,217.208Z" style="fill:rgb(255,236,0);"/>
            </g>
            <g transform="matrix(1.46307,0,0,1.46307,110.454,-136.526)">
                <path d="M136.996,217.456C136.709,217.711 136.227,217.438 135.832,217.636C135.185,217.959 134.316,217.931 133.568,217.931C133.364,217.931 133.003,217.949 132.668,217.969L134.196,217.771L136.996,217.456Z" style="fill:rgb(255,236,0);"/>
            </g>
            <g transform="matrix(1.46307,0,0,1.46307,110.454,-136.526)">
                <path d="M137.178,217.383L138.013,217.274C137.958,217.302 137.905,217.331 137.854,217.359L136.996,217.456C137.002,217.45 137.008,217.445 137.014,217.439C137.028,217.424 137.091,217.404 137.178,217.383Z" style="fill:rgb(255,236,0);"/>
            </g>
            <g transform="matrix(1.46307,0,0,1.46307,110.454,-136.526)">
                <path d="M134.196,217.771L137.178,217.383C137.091,217.404 137.028,217.424 137.014,217.439C137.008,217.445 137.002,217.45 136.996,217.456L134.196,217.771Z" style="fill:rgb(255,236,0);"/>
            </g>
            <g transform="matrix(1.46307,0,0,1.46307,110.454,-136.526)">
                <path d="M137.854,217.359C137.719,217.433 137.597,217.501 137.506,217.537C137.364,217.594 136.439,217.62 136.325,217.734C135.85,218.209 134.017,218.423 133.371,218.423C133.04,218.423 132.144,218.522 131.647,218.44C131.638,218.329 131.627,218.217 131.616,218.106L131.737,218.091C131.724,218.103 131.711,218.115 131.698,218.128C131.711,218.115 131.724,218.103 131.737,218.091L132.668,217.969C133.003,217.949 133.364,217.931 133.568,217.931C134.316,217.931 135.185,217.959 135.832,217.636C136.227,217.438 136.709,217.711 136.996,217.456L137.854,217.359Z" style="fill:rgb(255,236,0);"/>
            </g>
        </g>
    </g>
    <g transform="matrix(1,0,0,1,-84.5511,-257.919)">
        <path d="M132.374,294.114C135.231,294.114 137.906,294.658 140.401,295.745C142.895,296.833 145.07,298.304 146.924,300.158C148.779,302.013 150.25,304.198 151.337,306.714C152.425,309.23 152.968,311.895 152.968,314.709L152.968,331.338C152.968,332.446 152.585,333.384 151.817,334.152C151.05,334.919 150.112,335.303 149.003,335.303C147.894,335.303 146.946,334.919 146.157,334.152C145.368,333.384 144.974,332.446 144.974,331.338L144.974,323.663L132.374,323.663L132.374,323.599C132.246,323.642 132.012,323.663 131.67,323.663C130.263,323.663 128.92,323.876 127.641,324.302C126.362,324.729 125.2,325.326 124.155,326.093C123.111,326.861 122.205,327.778 121.437,328.843C120.67,329.909 120.094,331.082 119.71,332.361C119.668,332.404 119.646,332.446 119.646,332.489C119.646,332.532 119.625,332.574 119.582,332.617C119.327,333.427 118.858,334.077 118.175,334.568C117.493,335.058 116.704,335.303 115.809,335.303C114.7,335.303 113.762,334.919 112.995,334.152C112.227,333.385 111.843,332.446 111.843,331.338L111.843,314.709C111.843,312.193 112.27,309.827 113.123,307.609C114.146,304.881 115.681,302.45 117.728,300.318C119.646,298.4 121.853,296.886 124.347,295.777C126.842,294.669 129.517,294.114 132.374,294.114L132.374,294.114ZM144.974,315.668L144.974,314.709C144.974,312.492 144.441,310.445 143.375,308.569C143.375,308.526 143.364,308.494 143.343,308.473C143.321,308.452 143.311,308.42 143.311,308.377C143.14,308.121 142.97,307.865 142.799,307.609C142.629,307.354 142.458,307.119 142.287,306.906C141.136,305.414 139.708,304.241 138.002,303.388C136.297,302.535 134.421,302.109 132.374,302.109C130.327,302.109 128.441,302.567 126.714,303.484C124.987,304.401 123.548,305.605 122.397,307.098C121.586,308.164 120.957,309.336 120.51,310.615C120.062,311.895 119.838,313.259 119.838,314.709L119.838,319.442C121.501,318.248 123.335,317.32 125.339,316.659C127.343,315.999 129.453,315.668 131.67,315.668L132.374,315.668L144.974,315.668Z" style="fill:rgb(0,195,255);fill-rule:nonzero;"/>
    </g>
</svg>
